<?xml version="1.0" standalone="no"?>
<!DOCTYPE svg PUBLIC "-//W3C//DTD SVG 20010904//EN"
 "http://www.w3.org/TR/2001/REC-SVG-20010904/DTD/svg10.dtd">
<svg version="1.0" xmlns="http://www.w3.org/2000/svg"
 width="480.000000pt" height="480.000000pt" viewBox="0 0 480.000000 480.000000"
 preserveAspectRatio="xMidYMid meet">
<metadata>
Created by potrace 1.14, written by Peter Selinger 2001-2017
</metadata>
<g transform="translate(0.000000,480.000000) scale(0.100000,-0.100000)"
fill="#000000" stroke="none">
<path d="M2452 4785 c-16 -7 -72 -42 -124 -77 -51 -34 -98 -65 -103 -68 -6 -3
-82 -53 -170 -111 -88 -58 -329 -218 -535 -354 -543 -359 -538 -355 -543 -369
-3 -6 -97 -151 -209 -321 -112 -171 -253 -384 -313 -475 -60 -91 -180 -273
-268 -405 -88 -132 -165 -253 -172 -270 -21 -50 -8 -139 31 -217 28 -56 70
-101 388 -422 l241 -243 75 -27 c41 -14 117 -41 168 -60 l94 -33 24 -74 c32
-94 91 -216 146 -299 28 -43 185 -207 462 -482 l420 -418 480 -1 c265 0 662
-1 883 -2 l402 -2 17 60 c9 33 29 100 45 150 36 109 55 169 109 343 35 113 39
136 28 150 -11 15 -11 15 2 6 12 -9 44 -3 145 30 72 24 219 71 328 106 l197
64 0 902 0 902 -397 399 c-219 220 -424 419 -456 442 -92 67 -310 168 -374
173 -25 3 -23 -2 -83 178 -22 69 -46 136 -53 150 -15 30 -571 583 -621 616
-87 60 -201 85 -264 59z"/>
</g>
</svg>
